<?xml version="1.0" encoding="UTF-8"?>
<svg id="_1_500xA0_1_500_px_Logo_1" data-name="1 500xA0 1 500 px Logo 1" xmlns="http://www.w3.org/2000/svg" viewBox="0 0 1500 1500">
  <defs>
    <style>
      .cls-1 {
        fill: #fff;
      }

      .cls-1, .cls-2 {
        stroke-width: 0px;
      }

      .cls-2 {
        fill: #565eda;
      }
    </style>
  </defs>
  <rect class="cls-2" x="-26.78" y="-37.22" width="1553.55" height="1553.55"/>
  <path class="cls-1" d="m420.97,567.83c-2.54-21.19,9.02-93.88,93.36-101.54,12.01-1.09,95.05-.86,100.85,95.1,4.9,80.98-74.91,128.76-147.3,90.4-18.23-9.66-46.88-29.96-46.91-83.96Zm130.98-.29c.73-23.89-10.02-45.69-31.15-46.8-31.96-1.68-37.12,29.71-37.66,47.41-.09,3.1-.96,36.13,24.23,45.01,5.92,2.09,11.91,1.76,17.83.69,25.01-4.57,26.93-37.9,26.76-46.31Z"/>
  <path class="cls-1" d="m336.57,1071.18c-4.24-10.4-1.47-64.73-1.53-69.19-.63-49.38-1.44-57-1.5-89.1.03-7.08,2.11-18.63,12.76-19.5,7.98-.65,30.57-.29,30.88-.28,10.06.27,13.18,3.75,14.86,8.49,1.76,4.97,1.82,10.19,1.89,15.38.42,31.93,3.26,138.69-.8,152.47-1.58,5.36-4.05,8.04-10.32,8.94-9.38,1.35-41.61,4.19-46.26-7.2Zm9.68-191.67c-6.34-1.96-10.02-4.44-11.29-12.12-3.89-23.46,1.74-31.22,3.07-33.29,1.87-2.91,4.74-4.62,8.12-5.13,10.62-1.63,29.22-1.18,36.51-.2,4.47.6,9.49,4.23,10.05,9.99,1.2,12.32,1.61,23.67-.66,31.16-1.58,5.19-4.82,8.63-10.49,9.04-.33.02-25.9,3.47-35.3.56Z"/>
  <path class="cls-1" d="m608.14,1058.12c-.28,19.56-8.88,21.38-12.75,21.83-15.06,1.78-37.32.08-41.55-1.25-3.61-1.14-5.65-3.6-6.88-6.86-5.15-13.71-.77-16.49-2.73-98.44-.7-29.68-21.79-41.58-39.46-29.6-7.5,5.08-11.57,12.39-13.11,21.21-1.81,10.34-.83,94.31-.85,94.85-.4,18.06-5.51,20.45-18.28,20.85-7.57.24-29.44-.25-29.75-.27-6.63-.32-14.8-1.38-15.68-21.28-.3-6.84-.86-13.67-1.07-20.52-1.27-40.67.6-117.01.62-117.55.33-6.71,1.19-13.3,3.34-19.77,1.83-5.5,9.77-10.82,14.56-11.03.34-.01,23.83-2.09,34.37,3.29,15.36,7.84,10.88,3.38,32.53-3.91,5.44-1.83,10.98-3.34,16.67-4.04,7.45-.91,49.75-.98,68.62,27.95,3.98,6.1,7.18,12.61,8.4,19.83.85,4.97,4.62,12.54,2.99,124.69Z"/>
  <path class="cls-1" d="m638.06,997.29c14.19-25.36,42.46-29.38,68.49-33.71,8.89-1.48,19.25-1.82,27.52-5.6,12.3-5.63,11.66-17.82,3.9-24.03-10.68-8.54-27.33-3.55-36.06,5.21-6.45,6.47-5.07,13.63-16.71,16.01-1.91.39-34.54,2.69-40.11-.34-4.06-2.2-6.23-5.9-6.9-10.36-1.29-8.6,1.79-16.13,6.1-23.3,18.41-30.59,59.32-41.5,93.05-38.74,21.53,1.79,34.04,8.75,37.55,10.72,15.47,8.69,26.19,22.87,29.58,40.36,5.25,27.07.19,91.88,5.21,122.66.63,3.86,1.62,7.71,1.19,11.67-.58,5.35-4.95,10.89-10.57,12.15-1.95.43-31.35,4.32-41.3-.78-1.54-.79-2.62-2.07-3.92-3.1-2.91-2.31-6.09-2.54-9.47-1.48-23.63,7.4-46.4,14.79-71.09,6.85-50.4-16.22-47.46-64.45-36.43-84.17Zm94.13,33.99c10.44-11.51,12.22-27.76-1.31-27.25-18.35.7-28.57,6.56-34.28,11.13-8.6,6.88-5.35,18.11.82,20.84,7.54,3.34,25.11,5.94,34.77-4.71Z"/>
  <path class="cls-1" d="m1020.44,1058.12c-.28,19.56-8.88,21.38-12.75,21.83-15.06,1.78-37.32.08-41.55-1.25-3.61-1.14-5.65-3.6-6.88-6.86-5.15-13.71-.77-16.49-2.73-98.44-.7-29.68-21.79-41.58-39.46-29.6-7.5,5.08-11.57,12.39-13.11,21.21-1.81,10.34-.83,94.31-.85,94.85-.4,18.06-5.51,20.45-18.28,20.85-7.57.24-29.44-.25-29.75-.27-6.63-.32-14.8-1.38-15.68-21.28-.3-6.84-.86-13.67-1.07-20.52-1.27-40.67.6-117.01.62-117.55.33-6.71,1.19-13.3,3.34-19.77,1.83-5.5,9.77-10.82,14.56-11.03.34-.01,23.83-2.09,34.37,3.29,15.36,7.84,10.88,3.38,32.53-3.91,5.44-1.83,10.98-3.34,16.67-4.04,7.45-.91,49.75-.98,68.62,27.95,3.98,6.1,7.18,12.61,8.4,19.83.85,4.97,4.62,12.54,2.99,124.69Z"/>
  <path class="cls-1" d="m1177.63,966.1c-11.18-2.6-12.76-13.62-21.51-20.44-4.79-3.73-10.63-6.16-16.69-6.73-26.07-2.46-42.63,24.07-36.46,58.86,4.27,24.12,22.46,37.28,39.53,35.72,18.64-1.7,24.05-18.5,25.77-22.83,2.25-5.66,6.19-8.97,12.4-10.3,10.29-2.18,32.67,5.29,34.3,5.96,5.33,2.19,7.76,5.58,7.94,11.34.68,21.85-25.52,54-59.67,63.64-27.22,7.68-57.77,1.69-80.55-15.07-22.78-16.77-37.49-43.79-40-71.96-3.1-34.92,11.87-71.79,40.86-92.03,5.21-3.64,10.79-6.76,16.62-9.27,51.02-21.98,105.12,7.47,117.96,42.2,2.56,6.91,5.31,17.13,2.35,24.23-5.19,12.53-37.52,7.92-42.85,6.68Z"/>
  <path class="cls-1" d="m1432.45,990.91c-.34,9.96-4.86,14.12-14.49,15.8-5.97,1.04-12.05,1.14-18.09,1.24-12.85.2-25.7.41-38.54.62-9.12.14-18.24.29-27.36.42-16.5.22-20.71-.42-23.62,2.48-1.54,1.54-.89,5.15.43,7.88,2.39,4.98,8.15,9.32,13.01,11.68,7.62,3.7,15.54,4.84,23.95,3.79,4.76-.59,8.98-2.25,12.96-4.71,1.29-.8,2.46-1.87,3.52-2.97,2.31-2.42,3.73-5.5,5.71-8.18,2.16-2.94,4.64-5.45,8.54-5.82,3.47-.33,38.34-.62,44.83,3.65,3.49,2.29,4.88,5.27,3.84,9.22-5.71,21.6-22.75,38.32-42.46,48-30.76,15.12-69.09,15.14-98.64-3.02-20.34-12.5-35.79-32.74-42.49-55.65-6.3-21.54-4.77-45.06,3.94-65.7,3.11-7.37,5.68-14.22,10.34-20.95,4.53-6.54,9.88-12.53,15.86-17.79,11.84-10.42,26.2-18.02,41.59-21.56,29.39-6.77,61.83,1.42,84.49,21.32,18.07,15.86,28.61,37.94,31.75,61.32.84,6.25,1.15,12.6.95,18.96Zm-74.12-43.25c-4.45-3.51-10.74-5.33-16.32-6.32-10.85-1.92-25.93,1.53-31.14,12.36-1.56,3.25-2.38,9.49,2.67,10.13,9.19,1.14,19.02.29,28.3.3,4.55,0,9.1.01,13.65.02,3.05,0,6.79.75,8.62-2.33,3.08-5.19-2.11-11.26-5.79-14.15Z"/>
  <path class="cls-1" d="m310.38,830.64c-5.4-5.81-13.58-4.64-20.73-4.62-42.49.17-84.98.34-127.47.51-9.15.04-27.26-2.45-31.27,9.44-3.87,11.49-2.14,15.23-1.71,82.52.93,147.06-1.5,155.66,6.97,160.3,7.83,4.28,24.89,4.17,36,3.33,6.57-.5,15.37-.06,19.81-5.68,4.39-5.57,3.63-12.19,3.66-18.86.11-22.94-.42-46.26,1.12-69.14.19-2.91,1.26-5.34,4.05-6.41,7.3-2.8,16.3-1.33,24.04-1.37,8.8-.05,17.75.57,26.56.52,13.06-.07,20.06-.38,20.06-.38l14.2-13.42,13.67-12.92c.41-.39.7-.86.89-1.36-.01-.92-.03-1.84-.06-2.76-.17-.38-.39-.75-.69-1.07l-12.92-13.67-11.33-11.99c.9,0,0,0,0,0-1.24,0-2.55,0-3.89,0-4.33,0-12.84,0-29.29,0-35.09-.02-36.26,1.02-41.23-1.71-1.82-.99-3.19-2.4-3.5-4.52-.43-3.04-1.96-12.27.56-21.77,0-10.53,18.88-9.21,25.5-9,.54.02,45.98.4,46.25.39,33.71.67,44.07-21.32,44.34-30.66l.12-5.12s-.1-16.74-3.71-20.63Z"/>
  <path class="cls-1" d="m385.87,529.7h-105.21c-5.13,0-10.03,6.09-9.29,9.29,1.57,6.71,15.1,23.49,32.45,42.19-5.43,7.14-12.96,13.57-16.98,16.04-14.09,8.63-32.01,10.72-47.71,5.57-14.49-4.75-25.3-15.01-32.48-28.25-8.23-15.16-9.22-35.64-7.52-52.69,2.44-24.67,15-51.16,39.31-60.7,15.3-6,34.26-5.1,47.46,5.03.01,0,.03.02.04.03,2.19,1.69,5.21,1.79,7.44.15l42.49-31.13c3.02-2.21,3.39-6.61.74-9.25-3.45-3.43-7.06-6.58-10.71-9.39-.83-.64-1.68-1.27-2.53-1.89-20-14.39-44.02-20.97-68.02-20.53-26.91.49-53.77,9.79-74.93,26.8-24.35,19.58-41.02,48.02-48,78.47-3.98,17.4-4.87,35.43-3.09,53.17.72,7.16,3.76,72.93,68.88,102.57,35.02,15.94,72.09,11.39,106.77-2.42,3.22-1.29,23.71-9.39,40.33-30.22,18.05,16.63,34.05,29.43,40.56,30.95,3.2.75,9.29-4.16,9.29-9.29v-105.21c0-5.13-4.16-9.29-9.29-9.29Z"/>
</svg>